<svg xmlns="http://www.w3.org/2000/svg"  viewBox="0 0 64 64" width="48px" height="48px"><path d="M 32 10 C 25.758 10 20.127047 12.603297 16.123047 16.779297 C 15.309047 17.628297 15.467187 19.044516 16.367188 19.728516 C 17.186188 20.351516 18.340547 20.254812 19.060547 19.507812 C 22.332547 16.115813 26.915 14 32 14 C 41.264096 14 48.886 21.000559 49.880859 30 L 46.119141 30 C 45.225141 30 44.698031 31.003281 45.207031 31.738281 L 51.089844 40.240234 C 51.529844 40.877234 52.471109 40.877234 52.912109 40.240234 L 58.792969 31.738281 C 59.300969 31.003281 58.774859 30 57.880859 30 L 53.90625 30 C 52.895455 18.787514 43.475609 10 32 10 z M 12 23.283203 C 11.654375 23.283203 11.308391 23.441266 11.087891 23.759766 L 5.2070312 32.261719 C 4.6990313 32.996719 5.2251406 34 6.1191406 34 L 10.09375 34 C 11.104545 45.212486 20.524391 54 32 54 C 38.242 54 43.872953 51.396703 47.876953 47.220703 C 48.690953 46.371703 48.532812 44.955484 47.632812 44.271484 C 46.813812 43.648484 45.659453 43.745188 44.939453 44.492188 C 41.667453 47.884187 37.085 50 32 50 C 22.735904 50 15.114 42.999441 14.119141 34 L 17.880859 34 C 18.774859 34 19.301969 32.996719 18.792969 32.261719 L 12.910156 23.759766 C 12.690156 23.441266 12.345625 23.283203 12 23.283203 z"/></svg>