<svg xmlns="http://www.w3.org/2000/svg"  viewBox="0 0 64 64" width="48px" height="48px"><path d="M 47.205078 7.0546875 C 44.037705 6.977041 41.019375 8.1896094 38.578125 10.630859 C 36.455709 12.752615 35.325338 15.749524 35.277344 18.824219 C 29.873222 16.653326 19.444373 13.959758 11.371094 20.992188 C 0.91709375 30.096187 5.2489375 43.194344 10.710938 49.777344 C 14.136938 53.906344 17.767 56 21.5 56 C 24.039126 56 25.940676 55.050878 27.056641 54.296875 C 27.641456 54.487821 28.262227 54.599609 28.900391 54.599609 C 29.040391 54.599609 29.180312 54.590078 29.320312 54.580078 C 30.890312 54.470078 32.339062 53.770156 33.289062 52.660156 C 33.70758 52.170778 34.002202 51.62511 34.214844 51.0625 C 34.630602 51.162553 35.05437 51.230469 35.490234 51.230469 C 35.620234 51.230469 35.751813 51.226797 35.882812 51.216797 C 37.354812 51.112797 38.69525 50.439359 39.65625 49.318359 C 40.290212 48.578303 40.691813 47.722709 40.873047 46.837891 C 40.916097 46.838915 40.958898 46.849609 41.001953 46.849609 C 42.434953 46.849609 43.8605 46.282156 44.9375 45.160156 C 46.9815 43.027156 46.940703 39.597625 44.845703 37.515625 L 41.259766 33.949219 L 43.904297 31.392578 C 48.356297 33.155578 53.369859 32.195594 56.755859 28.808594 C 60.529859 25.036594 61.313734 19.532359 58.802734 14.443359 C 58.517734 13.865359 57.969031 13.460469 57.332031 13.355469 C 56.697031 13.248469 56.04975 13.457062 55.59375 13.914062 L 50.494141 19.013672 C 49.909141 19.597672 48.960047 19.599672 48.373047 19.013672 C 47.789047 18.428672 47.789047 17.475625 48.373047 16.890625 L 53.472656 11.792969 C 53.924656 11.341969 54.133156 10.701313 54.035156 10.070312 C 53.936156 9.4393125 53.543563 8.8926094 52.976562 8.5996094 C 51.060688 7.6114844 49.105502 7.1012754 47.205078 7.0546875 z M 46.501953 11.076172 C 47.125766 11.039906 47.763453 11.079016 48.408203 11.197266 L 45.544922 14.0625 C 43.400922 16.2075 43.400922 19.694844 45.544922 21.839844 C 47.689922 23.985844 51.178266 23.984844 53.322266 21.839844 L 56.123047 19.039062 C 56.455047 21.040063 56.239734 23.666516 53.927734 25.978516 C 51.866734 28.038516 48.135219 29.224281 44.449219 27.238281 C 43.680219 26.824281 42.733375 26.9575 42.109375 27.5625 L 38.423828 31.128906 L 36.273438 28.990234 L 39.876953 25.388672 C 40.493953 24.771672 40.637375 23.824781 40.234375 23.050781 C 38.591375 19.893781 39.09425 15.768031 41.40625 13.457031 C 42.88 11.984031 44.630516 11.184969 46.501953 11.076172 z M 23.546875 20.460938 C 28.967686 20.325762 34.038516 22.537813 36.041016 23.539062 C 36.047447 23.542272 36.054099 23.543741 36.060547 23.546875 L 33.4375 26.169922 L 32.845703 25.582031 C 32.063703 24.803031 30.795578 24.806844 30.017578 25.589844 C 29.238578 26.372844 29.242391 27.638969 30.025391 28.417969 L 42.027344 40.351562 C 42.585344 40.906563 42.595781 41.822625 42.050781 42.390625 C 41.502781 42.962625 40.6125 42.995 40.0625 42.5 L 35.376953 38.048828 C 34.577953 37.288828 33.313781 37.319094 32.550781 38.121094 C 31.789781 38.922094 31.821047 40.188219 32.623047 40.949219 L 36.253906 44.398438 C 36.32473 44.489245 36.399824 44.576422 36.488281 44.65625 C 37.088281 45.19725 37.146094 46.101844 36.621094 46.714844 C 36.362094 47.017844 36.000516 47.198563 35.603516 47.226562 C 35.200516 47.251562 34.821453 47.124437 34.564453 46.898438 L 29.613281 42.285156 C 28.806281 41.533156 27.540109 41.578719 26.787109 42.386719 C 26.034109 43.194719 26.077719 44.459891 26.886719 45.212891 L 30.412109 48.498047 C 30.450945 48.548916 30.484907 48.602784 30.529297 48.650391 C 30.599297 48.880391 30.68 49.560547 30.25 50.060547 C 29.99 50.360547 29.539062 50.559844 29.039062 50.589844 C 28.569062 50.619844 28.109844 50.499766 27.839844 50.259766 L 22.759766 45.689453 C 21.939766 44.949453 20.679453 45.010078 19.939453 45.830078 C 19.199453 46.650078 19.260078 47.920156 20.080078 48.660156 L 23.421875 51.667969 C 22.875637 51.857428 22.237149 52 21.5 52 C 19.014 52 16.419062 50.393609 13.789062 47.224609 C 9.3300625 41.849609 5.7050469 31.232766 13.998047 24.009766 C 16.914422 21.469516 20.294389 20.542043 23.546875 20.460938 z"/></svg>